<?xml version="1.0" encoding="UTF-8"?>
<svg width="49px" height="38px" viewBox="0 0 49 38" version="1.1" xmlns="http://www.w3.org/2000/svg" xmlns:xlink="http://www.w3.org/1999/xlink">
    <!-- Generator: Sketch 57.1 (83088) - https://sketch.com -->
    <title>“</title>
    <desc>Created with Sketch.</desc>
    <g id="Symbols" stroke="none" stroke-width="1" fill="none" fill-rule="evenodd">
        <g id="Component/Quote" transform="translate(-392.000000, -32.000000)" fill="#0849C6" fill-rule="nonzero">
            <g transform="translate(0.000000, 0.085938)" id="Group-2">
                <g>
                    <path d="M392.531359,56.5035472 C392.531359,46.7535472 397.861359,38.0435472 405.921359,32.4535472 L413.071359,38.1735472 C408.911359,40.3835472 404.101359,45.8435472 402.931359,50.5235472 C403.321359,50.2635472 404.491359,50.1335472 405.531359,50.1335472 C410.471359,50.1335472 414.371359,53.9035472 414.371359,59.4935472 C414.371359,65.0835472 409.691359,69.7635472 404.101359,69.7635472 C397.991359,69.7635472 392.531359,64.9535472 392.531359,56.5035472 Z M419.051359,56.5035472 C419.051359,46.7535472 424.251359,38.0435472 432.311359,32.4535472 L439.591359,38.1735472 C435.431359,40.3835472 430.491359,45.8435472 429.451359,50.5235472 C429.841359,50.2635472 431.011359,50.1335472 432.051359,50.1335472 C436.861359,50.1335472 440.761359,53.9035472 440.761359,59.4935472 C440.761359,65.0835472 436.211359,69.7635472 430.491359,69.7635472 C424.381359,69.7635472 419.051359,64.9535472 419.051359,56.5035472 Z" id="“"></path>
                </g>
            </g>
        </g>
    </g>
</svg>